# xmcd
#
# Track frame offsets: 
#        150
#        17298
#        40353
#        49592
#        89160
#        106831
#        143385
#        171722
#        182953
#
# Disc length: 2975 seconds
#
# Revision: 1
# Processed by: cddbd v1.5.2PL0 Copyright (c) Steve Scherf et al.
# Submitted via: ExactAudioCopyFreeDBPlugin 1.0
#
DISCID=740b9d09
DTITLE=Roy Buchanan - Live At Town Hall 1974 [CD2] Late Set
DYEAR=1974
DGENRE=Blues
TTITLE0=Im Evil
TTITLE1=Too Many Drivers
TTITLE2=Done Your Daddy Dirty
TTITLE3=Roy's Bluz
TTITLE4=Further On Up The Road
TTITLE5=Hey Joe
TTITLE6=Can I Change My Mind
TTITLE7=In The Beginning
TTITLE8=All Over Again (I've Got A Mind To Give Up Living)
EXTD=
EXTT0=
EXTT1=
EXTT2=
EXTT3=
EXTT4=
EXTT5=
EXTT6=
EXTT7=
EXTT8=
PLAYORDER=
